Coordinates
version=1
nRows=119
nColumns=7
inDegrees=yes

"Units are S.I. units (second, meters, Newtons, ...)"
"If the header above contains a line with 'inDegrees', this indicates whether rotational values are in degrees (yes) or radians (no)."

endheader
time	hip_flexion_r	hip_adduction_r	hip_rotation_r	knee_angle_r	ankle_angle_r	subtalar_angle_r
12.65	33.38273149	-5.21817064	-2.40969509	10.40934995	2.39848984	1.60220101
12.655	33.14835948	-5.15916953	-2.33096476	11.09121115	2.12493566	1.08174845
12.66	32.88508983	-5.136236	-2.26941864	11.71472026	1.82097859	0.5195597
12.665	32.57654671	-5.01996862	-2.03774905	11.93869926	0.35155694	-1.30044951
12.67	32.27803955	-4.99948675	-2.18000592	12.46300848	0.02140561	-1.78280435
12.675	32.03954156	-4.84126876	-2.25359555	12.65514645	-0.96923838	-3.09669822
12.68	31.76681627	-4.74879187	-2.61045862	13.20500444	-1.65022403	-3.51751758
12.685	31.71689908	-4.66626265	-2.90440417	13.66469875	-2.48098952	-4.09035333
12.69	31.49348336	-4.52769593	-3.02590994	14.32053012	-3.02929285	-4.15451349
12.695	31.37301445	-4.26653206	-3.22348215	15.03191119	-3.20406568	-4.21712203
12.7	31.6345864	-4.1756419	-3.62891247	15.97469674	-3.11107881	-3.70093397
12.705	31.36057566	-3.91646598	-3.69078535	16.6415005	-3.2681215	-3.77833096
12.71	31.61208591	-3.71666583	-4.04690509	17.53410349	-3.24652291	-3.5983351
12.715	31.57875735	-3.49914934	-4.24462141	18.33104118	-3.28724302	-3.61340012
12.72	31.66212573	-3.33655991	-4.30979023	19.18227785	-3.33469863	-3.62314603
12.725	31.59534111	-3.0222605	-4.30705885	19.82338149	-3.36413958	-3.69974832
12.73	31.11554264	-2.75910111	-4.06185361	20.40954869	-3.35794502	-3.77651545
12.735	31.32771132	-2.26712195	-4.21287945	21.02823627	-3.07536291	-3.98877352
12.74	31.07578408	-1.87385964	-4.22465294	21.61874368	-2.79889003	-4.11024856
12.745	30.81500061	-1.50918439	-4.23717579	22.11530233	-2.45628533	-4.309469
12.75	30.68977269	-1.23473376	-4.24596031	22.5778046	-2.09110351	-4.5981419
12.755	30.221283	-0.83020001	-4.30892483	22.89221156	-1.75069684	-4.78178192
12.76	29.8663556	-0.53897968	-4.31579529	23.17864279	-1.42817084	-4.92188264
12.765	29.41256977	-0.24462486	-4.3797732	23.39475152	-1.08932213	-4.96655636
12.77	28.91368126	0.08006097	-4.46091513	23.55340258	-0.81691181	-4.97695005
12.775	28.57626563	0.23008885	-4.54191097	23.72005369	-0.43280317	-5.01598128
12.78	28.22458698	0.46788979	-4.64758911	23.90146144	0.25805481	-4.65594748
12.785	27.62793272	0.70235994	-4.79256297	23.89979243	0.52430921	-4.61534201
12.79	27.216397	0.85026125	-4.87407275	23.87334766	0.97932192	-4.54106149
12.795	26.72095534	0.97929816	-5.03263682	23.78793905	1.26790977	-4.49169639
12.8	26.18615265	1.0287174	-5.02535462	23.71142331	1.62904446	-4.47517848
12.805	25.80043799	1.1778337	-5.17723466	23.53389677	1.79897935	-4.45011969
12.81	25.21926386	1.09776906	-5.09760649	23.35591669	2.06601086	-4.39317023
12.815	24.92566233	1.18111605	-5.41346246	23.18642595	2.29386817	-4.24232122
12.82	24.52966258	1.16325845	-5.43217993	23.00473409	2.57061823	-4.14409325
12.825	23.9665934	1.01847878	-5.39037156	22.85835142	2.6657673	-4.09894468
12.83	23.56598443	1.20594908	-5.64413381	22.64817227	3.08938445	-3.77711945
12.835	23.02426844	1.11500931	-5.48960688	22.42887253	3.31676377	-3.69840622
12.84	22.70086514	1.26910052	-5.65181724	22.1668407	3.54854728	-3.53284872
12.845	22.17580053	1.18342021	-5.64036537	22.03697243	3.65363464	-3.48247247
12.85	21.65804402	1.10207857	-5.62809079	21.8444246	3.8249082	-3.39157364
12.855	21.26280234	1.16164601	-5.71078867	21.491816	4.26333529	-2.70603617
12.86	20.77999011	1.18572886	-5.76858365	21.33365165	4.41679254	-2.64738703
12.865	20.3100557	1.33194585	-5.76932076	20.86278592	4.61886871	-2.39210608
12.87	19.82833299	1.36037952	-5.80937672	20.60821456	4.79704696	-2.25380195
12.875	19.2833356	1.39981663	-5.82973853	20.24172278	4.93438127	-1.94042642
12.88	18.74961168	1.37068707	-5.79778686	19.91078264	5.12344814	-1.74923267
12.885	18.27944354	1.37230975	-5.85751719	19.66221361	5.27622169	-1.62652975
12.89	17.63457892	1.33933273	-5.78746235	19.19219518	5.41263701	-1.31427937
12.895	17.07973001	1.34044239	-5.77201827	18.87366578	5.5631164	-1.18016739
12.9	16.26007157	1.3437467	-5.60984925	18.37715916	5.71811774	-1.04842569
12.905	15.82359389	1.28519442	-5.62566106	18.081463	5.82824247	-0.8165512
12.91	15.40616051	1.37031502	-5.69980586	17.94407136	5.97423442	-0.78103388
12.915	14.60982223	1.02863336	-5.50991031	17.3648049	6.06287424	-0.59854316
12.92	14.23875229	1.15939157	-5.63490328	17.24947457	6.21285736	-0.57895163
12.925	13.55567112	0.76654209	-5.39517643	16.73268202	6.26814078	-0.16710463
12.93	13.19875633	0.98473816	-5.48810058	16.66456276	6.41851761	-0.15121271
12.935	12.75525321	0.71405921	-5.28876366	16.1147611	6.39807426	0.12280647
12.94	12.23330106	0.54278408	-5.13528061	15.78279641	6.45496865	0.22250808
12.945	11.66482773	0.46650576	-5.07274579	15.52735248	6.5300449	0.292317
12.95	11.33579369	0.70317642	-5.15636224	15.44598379	6.68745652	0.31930973
12.955	10.62953063	0.22777123	-4.86846559	15.05938936	6.68226691	0.4748144
12.96	10.27266125	0.1707631	-4.82293863	14.77585404	6.77692627	0.59560895
12.965	9.87992202	0.11450999	-4.68578143	14.50284289	6.80437189	0.80418088
12.97	9.49297938	0.06384868	-4.5859039	14.34245726	6.84134709	0.8704501
12.975	8.88623847	-0.07611985	-4.42324844	14.10324877	6.87672578	0.91933231
12.98	8.61782189	0.04299815	-4.43128035	14.00803315	6.89496823	1.03024642
12.985	8.09474267	-0.18754815	-4.24413438	13.80634083	7.10891919	1.10404479
12.99	7.71752185	-0.19750049	-4.14324402	13.63576618	7.03598601	1.13647841
12.995	7.47856764	0.23627482	-4.27060141	13.61318128	7.19308798	1.13754226
13	6.98931005	-0.16805396	-3.95388136	13.33870085	7.06918581	1.14151309
13.005	6.71475927	-0.08912201	-3.84968347	13.22878065	7.10362127	1.13268166
13.01	6.36798522	-0.07389565	-3.79457176	13.08654612	7.04932503	1.0991003
13.015	6.04881519	-0.00409457	-3.6379377	12.98988243	7.0892701	1.05760706
13.02	5.8825485	0.31434783	-3.5901237	12.92357205	7.07997615	1.12107057
13.025	5.42040519	0.21406076	-3.44187307	12.75233659	7.10918082	1.04930818
13.03	5.14406998	0.41334998	-3.32576658	12.63960452	7.11712009	0.95754463
13.035	4.9939367	0.77780367	-3.35451624	12.58902705	7.15542961	0.96217183
13.04	4.55616029	0.86484286	-3.18432457	12.40547094	7.09337202	0.74124738
13.045	4.26448658	1.11422766	-2.97054457	12.3046502	7.00653311	0.58163082
13.05	4.14168449	1.41576592	-2.92726588	12.26723021	7.02993309	0.57545351
13.055	3.68912723	1.57046846	-2.75953045	12.1107965	6.95124218	0.43423703
13.06	3.44030914	1.76281741	-2.69718786	11.94858212	6.93919802	0.39171182
13.065	3.1684765	2.02444221	-2.7211606	11.90786721	6.94342187	0.54301636
13.07	2.86653307	2.19298724	-2.69388247	11.83147811	6.95633171	0.66716578
13.075	2.59413969	2.49598927	-2.89933014	11.78382578	7.03187147	0.71585251
13.08	1.78220337	2.19910732	-2.77588731	11.71855042	6.97049589	1.2581442
13.085	1.59915451	2.34950917	-2.82180061	11.69605838	6.94620161	1.36809294
13.09	1.15097085	2.25960127	-2.8135392	11.63940541	6.9782447	1.64715298
13.095	0.45195997	2.08213176	-2.99320285	11.67762272	6.86338865	2.1986933
13.1	0.22221297	2.14881726	-2.96007221	11.71241176	6.84918061	2.31733099
13.105	-0.43988071	1.91894629	-3.12816103	11.83457609	6.87904285	2.92792455
13.11	-0.63834904	1.89543806	-3.14135023	11.96964127	6.850292	3.00607662
13.115	-1.14732934	1.66681518	-3.35492155	12.19106016	6.84812829	3.58291972
13.12	-1.40808854	1.72269115	-3.30985121	12.26428399	6.82908156	3.59530658
13.125	-1.56997037	1.71877001	-3.32651862	12.50818929	6.76632173	3.66959424
13.13	-2.14377143	1.37875099	-3.58542686	12.94816578	6.80542001	4.38400509
13.135	-2.40913149	1.34361701	-3.59193087	13.2048116	6.53969543	4.35714298
13.14	-2.6323756	1.30069816	-3.44493881	13.36321336	6.47381625	4.36328939
13.145	-2.89290351	1.23398727	-3.61204877	13.914026	6.32567906	4.51957624
13.15	-3.13832294	1.21981204	-3.48799212	14.28180375	6.24422657	4.37625445
13.155	-3.37296531	1.20839207	-3.40433949	14.68514528	6.17591645	4.28107968
13.16	-3.47133016	1.19828847	-3.45014591	15.12255419	5.65442736	4.17417858
13.165	-3.73836945	1.17544227	-3.37516357	15.53491429	5.58550253	4.05301834
13.17	-3.933163	1.03059056	-3.08422724	15.83899719	5.41359407	4.0730146
13.175	-3.8058858	1.09681917	-3.64546645	16.78435593	5.22343442	4.2196456
13.18	-4.01106161	1.02306189	-3.54987528	17.35952922	5.01415951	4.05000985
13.185	-3.97914006	0.85426829	-3.70717202	18.12055049	4.69109248	4.1510419
13.19	-3.99361641	0.69383497	-3.7967893	18.86299424	4.43729354	4.22155255
13.195	-3.95457366	0.45095689	-3.92908292	19.66082604	4.22149534	4.36355174
13.2	-4.04831153	0.33664777	-3.8442317	20.4131786	3.89157122	4.15465362
13.205	-4.02488967	0.18141758	-3.89580999	21.25035093	3.55148524	3.92364555
13.21	-3.59980452	-0.20074262	-3.98149077	22.54498775	3.22908799	3.85075121
13.215	-3.05452058	-0.55715148	-4.3120049	23.86176303	2.86826242	4.26499
13.22	-2.60117725	-0.7466096	-4.32363138	25.12605299	2.37079508	4.04857896
13.225	-2.06085249	-0.99798919	-4.35535884	26.53373287	1.81839236	3.85020562
13.23	-1.8827684	-1.21493458	-4.38087643	27.85071356	1.11012687	3.48754976
13.235	-0.73301187	-1.64663398	-4.39475625	29.72422044	0.62427844	3.48777079
13.24	-0.10657443	-2.06617967	-4.30865529	31.409883	-0.16677662	3.15010932
